<mxfile host="app.diagrams.net" modified="2023-09-14T02:35:20.285Z" agent="Mozilla/5.0 (Macintosh; Intel Mac OS X 10_15_7) AppleWebKit/537.36 (KHTML, like Gecko) Chrome/116.0.0.0 Safari/537.36" version="21.3.2" etag="O4tjSSM85plb2VLP-N0y" type="github">
  <diagram name="Page-1" id="3pMdecGvVrTZUV6eu6wa">
    <mxGraphModel>
      <root>
        <mxCell id="0" />
        <mxCell id="1" parent="0" />
      </root>
    </mxGraphModel>
  </diagram>
</mxfile>
